<?xml version="1.0" encoding="UTF-8" standalone="no"?>
<!-- Created with Inkscape (http://www.inkscape.org/) -->

<svg
   xmlns:dc="http://purl.org/dc/elements/1.1/"
   xmlns:cc="http://creativecommons.org/ns#"
   xmlns:rdf="http://www.w3.org/1999/02/22-rdf-syntax-ns#"
   xmlns:svg="http://www.w3.org/2000/svg"
   xmlns="http://www.w3.org/2000/svg"
   xmlns:sodipodi="http://sodipodi.sourceforge.net/DTD/sodipodi-0.dtd"
   xmlns:inkscape="http://www.inkscape.org/namespaces/inkscape"
   width="30"
   height="30"
   viewBox="0 0 7.9374998 7.9375002"
   version="1.1"
   id="svg822"
   inkscape:version="0.92.3 (2405546, 2018-03-11)"
   sodipodi:docname="blizzard 1.svg">
  <defs
     id="defs816" />
  <sodipodi:namedview
     id="base"
     pagecolor="#ffffff"
     bordercolor="#666666"
     borderopacity="1.0"
     inkscape:pageopacity="0.0"
     inkscape:pageshadow="2"
     inkscape:zoom="11.2"
     inkscape:cx="-1.9473951"
     inkscape:cy="15.326537"
     inkscape:document-units="mm"
     inkscape:current-layer="layer1"
     showgrid="false"
     units="px"
     inkscape:window-width="1366"
     inkscape:window-height="715"
     inkscape:window-x="-8"
     inkscape:window-y="-8"
     inkscape:window-maximized="1" />
  <metadata
     id="metadata819">
    <rdf:RDF>
      <cc:Work
         rdf:about="">
        <dc:format>image/svg+xml</dc:format>
        <dc:type
           rdf:resource="http://purl.org/dc/dcmitype/StillImage" />
        <dc:title></dc:title>
      </cc:Work>
    </rdf:RDF>
  </metadata>
  <g
     inkscape:label="Livello 1"
     inkscape:groupmode="layer"
     id="layer1"
     transform="translate(0,-289.06248)">
    <g
       id="g935"
       transform="translate(1.0792737e-7,-0.129935)"
       style="stroke:#000000;stroke-opacity:1;stroke-width:0.3175;stroke-miterlimit:4;stroke-dasharray:none">
      <path
         inkscape:connector-curvature="0"
         d="m 0.51614091,294.05629 c 0.0894897,-0.008 0.17590004,-0.0488 0.23569926,-0.12158 0.030807,-0.0373 0.77320723,-0.9144 2.66488763,-1.06738 0.1828655,-0.0148 0.3193855,-0.16847 0.3052469,-0.34323 -0.014139,-0.17477 -0.1735637,-0.30451 -0.3564435,-0.28971 -2.2063632,0.17845 -3.1012969,1.26849 -3.13819139,1.31488 -0.0458088,0.0573 -0.0681488,0.12428 -0.0685808,0.19074 -6.2509e-4,0.0951 0.0436209,0.18926 0.12812626,0.25191 0.0677759,0.05 0.14945323,0.0709 0.22925498,0.0643 z"
         id="path2"
         style="fill:#83c4d3;fill-opacity:1;stroke:#000000;stroke-width:0.3175;stroke-miterlimit:4;stroke-dasharray:none;stroke-opacity:1" />
      <path
         inkscape:connector-curvature="0"
         d="m 6.656569,291.83494 c -0.6388896,0 -1.0025814,0.38431 -1.0421247,0.42802 -0.118319,0.13161 -0.102424,0.32805 0.033708,0.44308 0.1358208,0.11489 0.344567,0.10215 0.4670972,-0.026 0.00809,-0.009 0.2035673,-0.21007 0.541318,-0.21007 0.2602856,0 0.4583461,0.31736 0.4583461,0.47626 0,0.384 -0.074548,0.79374 -0.9633501,0.79374 -0.6272213,0 -1.0187882,-0.0829 -1.3973924,-0.16309 -0.3588247,-0.0758 -0.7296452,-0.1544 -1.258655,-0.1544 -0.8793959,0 -2.4414518,0.6728 -2.98698161,1.76842 -0.0787607,0.15844 -0.00842,0.34788 0.1572072,0.42323 0.0460328,0.021 0.0946547,0.0307 0.14229455,0.0307 0.12415258,0 0.24311096,-0.0668 0.30015676,-0.1809 0.4061522,-0.81594 1.7079077,-1.40658 2.3873231,-1.40658 0.4563966,0 0.7617326,0.0646 1.1150506,0.13952 0.3944843,0.0834 0.8411473,0.17796 1.5409822,0.17796 0.6077696,0 1.6271982,-0.18558 1.6271982,-1.42874 0,-0.45317 -0.4372722,-1.11125 -1.122179,-1.11125 z"
         id="path4"
         style="fill:#83c4d3;fill-opacity:1;stroke:#000000;stroke-width:0.3175;stroke-miterlimit:4;stroke-dasharray:none;stroke-opacity:1" />
      <path
         inkscape:connector-curvature="0"
         d="m 3.8212728,294.53368 c -1.6369315,0 -1.9905622,1.13558 -2.0048348,1.1838 -0.049276,0.16729 0.051866,0.33936 0.2259212,0.38866 0.1747094,0.0488 0.3584973,-0.0466 0.4119862,-0.21253 0.00973,-0.0296 0.2479627,-0.72492 1.3669125,-0.72492 1.1228342,0 1.6340145,0.32915 1.6340145,0.635 0,0.31749 -0.1494233,0.31749 -0.2298205,0.31749 -0.063535,0 -0.2139407,-0.10009 -0.3082678,-0.20508 -0.118319,-0.13363 -0.3273922,-0.15101 -0.4680647,-0.0373 -0.139705,0.11334 -0.1572073,0.31361 -0.038904,0.44741 0.063862,0.0718 0.4016129,0.42991 0.8152212,0.42991 0.4123136,0 0.8936687,-0.24945 0.8936687,-0.95252 2.98e-5,-0.61394 -0.603528,-1.27002 -2.2978331,-1.27002 z"
         id="path6"
         style="fill:#83c4d3;fill-opacity:1;stroke:#000000;stroke-width:0.3175;stroke-miterlimit:4;stroke-dasharray:none;stroke-opacity:1" />
      <path
         id="path6-4"
         d="m 6.0590944,290.12921 c -0.076328,-0.1329 -0.2459593,-0.17864 -0.3787594,-0.10228 l -0.3167479,0.18215 v -0.36547 c 0,-0.15321 -0.1241675,-0.2774 -0.277398,-0.2774 -0.1532295,0 -0.2774684,0.12415 -0.2774684,0.2774 V 290.209 L 4.492116,290.02693 c -0.1327991,-0.0764 -0.302432,-0.0308 -0.3787593,0.10228 -0.0764,0.13278 -0.030649,0.30234 0.1021538,0.37875 l 0.3142307,0.18071 -0.3142307,0.1807 c -0.1328,0.0764 -0.1785534,0.24596 -0.1021538,0.37877 0.05129,0.0893 0.1446692,0.1392 0.2407082,0.1392 0.046902,0 0.094455,-0.0116 0.1380511,-0.0369 l 0.3166047,-0.18208 v 0.36503 c 0,0.15322 0.1242382,0.2774 0.2774684,0.2774 0.1532307,0 0.277398,-0.12415 0.277398,-0.2774 v -0.36509 l 0.3167479,0.18214 c 0.043596,0.0251 0.091146,0.0369 0.1380511,0.0369 0.096039,0 0.189416,-0.0499 0.2407083,-0.1392 0.0764,-0.13281 0.030649,-0.30236 -0.1021538,-0.37877 l -0.3142306,-0.1807 0.3142306,-0.18071 c 0.1327991,-0.0765 0.1785527,-0.24597 0.1021538,-0.37875 z m 0,0"
         style="fill:#eef3f4;fill-opacity:1;stroke:#000000;stroke-width:0.3175;stroke-miterlimit:4;stroke-dasharray:none;stroke-opacity:1"
         inkscape:connector-curvature="0" />
    </g>
  </g>
</svg>
