<?xml version="1.0" encoding="UTF-8" standalone="no"?>
<!-- Created with Inkscape (http://www.inkscape.org/) -->

<svg
   xmlns:dc="http://purl.org/dc/elements/1.1/"
   xmlns:cc="http://creativecommons.org/ns#"
   xmlns:rdf="http://www.w3.org/1999/02/22-rdf-syntax-ns#"
   xmlns:svg="http://www.w3.org/2000/svg"
   xmlns="http://www.w3.org/2000/svg"
   xmlns:sodipodi="http://sodipodi.sourceforge.net/DTD/sodipodi-0.dtd"
   xmlns:inkscape="http://www.inkscape.org/namespaces/inkscape"
   width="30"
   height="30"
   viewBox="0 0 7.9374998 7.9375002"
   version="1.1"
   id="svg822"
   inkscape:version="0.92.3 (2405546, 2018-03-11)"
   sodipodi:docname="nebbia 4.svg">
  <defs
     id="defs816" />
  <sodipodi:namedview
     id="base"
     pagecolor="#ffffff"
     bordercolor="#666666"
     borderopacity="1.0"
     inkscape:pageopacity="0.0"
     inkscape:pageshadow="2"
     inkscape:zoom="11.2"
     inkscape:cx="11.812658"
     inkscape:cy="13.188395"
     inkscape:document-units="mm"
     inkscape:current-layer="layer1"
     showgrid="false"
     units="px"
     inkscape:window-width="1366"
     inkscape:window-height="715"
     inkscape:window-x="-8"
     inkscape:window-y="-8"
     inkscape:window-maximized="1"
     inkscape:snap-global="true" />
  <metadata
     id="metadata819">
    <rdf:RDF>
      <cc:Work
         rdf:about="">
        <dc:format>image/svg+xml</dc:format>
        <dc:type
           rdf:resource="http://purl.org/dc/dcmitype/StillImage" />
        <dc:title></dc:title>
      </cc:Work>
    </rdf:RDF>
  </metadata>
  <g
     inkscape:label="Livello 1"
     inkscape:groupmode="layer"
     id="layer1"
     transform="translate(0,-289.06248)">
    <g
       id="g942"
       transform="matrix(0.96025623,0,0,0.96025623,0.15773306,10.660544)"
       style="stroke:#000000;stroke-width:0.33064091;stroke-miterlimit:4;stroke-dasharray:none;stroke-opacity:1">
      <path
         sodipodi:nodetypes="ccccccccccccccccccc"
         style="fill:#83c4d3;fill-opacity:1;stroke:#000000;stroke-width:0.33064091;stroke-miterlimit:4;stroke-dasharray:none;stroke-opacity:1"
         d="m 2.9381741,296.28869 c -0.4326137,-0.0336 -0.7703124,-0.35741 -1.2039604,-0.38864 -0.1161528,-0.0173 -0.2337971,-0.0243 -0.3511951,-0.0217 v 4e-5 c -0.43910427,0.0149 -0.86328006,0.1708 -1.26174335,0.33962 -0.26167901,0.1898 -0.0648002,0.67598 0.25736346,0.61624 0.49000308,-0.13215 1.01464219,-0.39482 1.52140969,-0.17239 0.3582402,0.16172 0.7224343,0.34626 1.1268709,0.33643 0.4579981,0.0209 0.8914703,-0.15759 1.1471248,-0.26607 0.1558473,-0.0573 0.479727,-0.20478 0.8252822,-0.14311 0.4326139,0.0336 0.7703122,0.35741 1.2039605,0.38864 0.116153,0.0173 0.2337969,0.0243 0.3511951,0.0217 v -5e-5 c 0.4391042,-0.0149 0.8632803,-0.1708 1.2617429,-0.33962 0.261679,-0.1898 0.0648,-0.67598 -0.2573633,-0.61624 -0.4900025,0.13216 -1.0146415,0.39482 -1.5214095,0.17239 -0.3582397,-0.16172 -0.7224339,-0.34626 -1.1268707,-0.33643 -0.4579982,-0.0209 -0.8914707,0.15759 -1.147125,0.26608 -0.1558469,0.0573 -0.4797267,0.20477 -0.8252822,0.1431 z"
         id="path873-8-7"
         inkscape:connector-curvature="0" />
      <g
         id="g26"
         transform="matrix(0.0364486,0,0,0.0364486,-38.888709,305.23349)"
         style="stroke:#000000;stroke-width:9.07143021;stroke-miterlimit:4;stroke-dasharray:none;stroke-opacity:1" />
      <g
         id="g28"
         transform="matrix(0.0364486,0,0,0.0364486,-38.888709,305.23349)"
         style="stroke:#000000;stroke-width:9.07143021;stroke-miterlimit:4;stroke-dasharray:none;stroke-opacity:1" />
      <g
         id="g30"
         transform="matrix(0.0364486,0,0,0.0364486,-38.888709,305.23349)"
         style="stroke:#000000;stroke-width:9.07143021;stroke-miterlimit:4;stroke-dasharray:none;stroke-opacity:1" />
      <g
         id="g32"
         transform="matrix(0.0364486,0,0,0.0364486,-38.888709,305.23349)"
         style="stroke:#000000;stroke-width:9.07143021;stroke-miterlimit:4;stroke-dasharray:none;stroke-opacity:1" />
      <g
         id="g34"
         transform="matrix(0.0364486,0,0,0.0364486,-38.888709,305.23349)"
         style="stroke:#000000;stroke-width:9.07143021;stroke-miterlimit:4;stroke-dasharray:none;stroke-opacity:1" />
      <g
         id="g36"
         transform="matrix(0.0364486,0,0,0.0364486,-38.888709,305.23349)"
         style="stroke:#000000;stroke-width:9.07143021;stroke-miterlimit:4;stroke-dasharray:none;stroke-opacity:1" />
      <g
         id="g38"
         transform="matrix(0.0364486,0,0,0.0364486,-38.888709,305.23349)"
         style="stroke:#000000;stroke-width:9.07143021;stroke-miterlimit:4;stroke-dasharray:none;stroke-opacity:1" />
      <g
         id="g40"
         transform="matrix(0.0364486,0,0,0.0364486,-38.888709,305.23349)"
         style="stroke:#000000;stroke-width:9.07143021;stroke-miterlimit:4;stroke-dasharray:none;stroke-opacity:1" />
      <g
         id="g42"
         transform="matrix(0.0364486,0,0,0.0364486,-38.888709,305.23349)"
         style="stroke:#000000;stroke-width:9.07143021;stroke-miterlimit:4;stroke-dasharray:none;stroke-opacity:1" />
      <g
         id="g44"
         transform="matrix(0.0364486,0,0,0.0364486,-38.888709,305.23349)"
         style="stroke:#000000;stroke-width:9.07143021;stroke-miterlimit:4;stroke-dasharray:none;stroke-opacity:1" />
      <g
         id="g46"
         transform="matrix(0.0364486,0,0,0.0364486,-38.888709,305.23349)"
         style="stroke:#000000;stroke-width:9.07143021;stroke-miterlimit:4;stroke-dasharray:none;stroke-opacity:1" />
      <g
         id="g48"
         transform="matrix(0.0364486,0,0,0.0364486,-38.888709,305.23349)"
         style="stroke:#000000;stroke-width:9.07143021;stroke-miterlimit:4;stroke-dasharray:none;stroke-opacity:1" />
      <g
         id="g50"
         transform="matrix(0.0364486,0,0,0.0364486,-38.888709,305.23349)"
         style="stroke:#000000;stroke-width:9.07143021;stroke-miterlimit:4;stroke-dasharray:none;stroke-opacity:1" />
      <g
         id="g52"
         transform="matrix(0.0364486,0,0,0.0364486,-38.888709,305.23349)"
         style="stroke:#000000;stroke-width:9.07143021;stroke-miterlimit:4;stroke-dasharray:none;stroke-opacity:1" />
      <g
         id="g54"
         transform="matrix(0.0364486,0,0,0.0364486,-38.888709,305.23349)"
         style="stroke:#000000;stroke-width:9.07143021;stroke-miterlimit:4;stroke-dasharray:none;stroke-opacity:1" />
      <path
         sodipodi:nodetypes="ccccccccccccccccccc"
         style="fill:#83c4d3;fill-opacity:1;stroke:#000000;stroke-width:0.33064091;stroke-miterlimit:4;stroke-dasharray:none;stroke-opacity:1"
         d="m 2.9381739,291.52619 c -0.4326136,-0.0336 -0.7703123,-0.35741 -1.2039603,-0.38864 -0.1161528,-0.0173 -0.2337971,-0.0243 -0.3511951,-0.0217 v 4e-5 c -0.43910425,0.0149 -0.86328005,0.1708 -1.26174334,0.33962 -0.26167901,0.1898 -0.0648002,0.67598 0.2573635,0.61624 0.49000309,-0.13215 1.01464204,-0.39482 1.52140964,-0.17239 0.3582402,0.16172 0.7224344,0.34626 1.1268709,0.33643 0.4579979,0.0209 0.8914704,-0.15759 1.1471248,-0.26607 0.1558473,-0.0573 0.4797272,-0.20478 0.8252823,-0.14311 0.4326138,0.0336 0.7703121,0.35741 1.2039608,0.38864 0.1161528,0.0173 0.2337966,0.0243 0.3511949,0.0217 v -5e-5 c 0.4391041,-0.0149 0.8632801,-0.1708 1.2617429,-0.33962 0.261679,-0.1898 0.0648,-0.67598 -0.2573634,-0.61624 -0.4900025,0.13216 -1.0146416,0.39482 -1.5214095,0.17239 -0.3582397,-0.16172 -0.7224339,-0.34626 -1.1268707,-0.33643 -0.4579982,-0.0209 -0.8914707,0.15759 -1.1471248,0.26608 -0.1558473,0.0573 -0.4797272,0.20477 -0.8252826,0.1431 z"
         id="path873-8-7-4-1"
         inkscape:connector-curvature="0" />
      <path
         sodipodi:nodetypes="ccccccccccccccccccc"
         style="fill:#83c4d3;fill-opacity:1;stroke:#000000;stroke-width:0.33064091;stroke-miterlimit:4;stroke-dasharray:none;stroke-opacity:1"
         d="m 2.9381739,293.11369 c -0.4326136,-0.0336 -0.7703123,-0.35741 -1.2039603,-0.38864 -0.1161528,-0.0173 -0.2337972,-0.0243 -0.3511952,-0.0217 v 4e-5 c -0.43910412,0.0149 -0.86327991,0.1708 -1.26174324,0.33962 -0.26167901,0.1898 -0.0648002,0.67598 0.2573635,0.61624 0.49000309,-0.13215 1.01464194,-0.39482 1.52140964,-0.17239 0.3582402,0.16172 0.7224344,0.34626 1.1268709,0.33643 0.4579979,0.0209 0.8914704,-0.15759 1.1471248,-0.26607 0.1558473,-0.0573 0.4797272,-0.20478 0.8252823,-0.14311 0.4326138,0.0336 0.7703121,0.35741 1.2039608,0.38864 0.1161528,0.0173 0.2337966,0.0243 0.3511949,0.0217 v -5e-5 c 0.4391041,-0.0149 0.8632801,-0.1708 1.2617429,-0.33962 0.261679,-0.1898 0.0648,-0.67598 -0.2573634,-0.61624 -0.4900025,0.13216 -1.0146416,0.39482 -1.5214095,0.17239 -0.3582397,-0.16172 -0.7224339,-0.34626 -1.1268707,-0.33643 -0.4579982,-0.0209 -0.8914707,0.15759 -1.1471248,0.26608 -0.1558473,0.0573 -0.4797272,0.20477 -0.8252826,0.1431 z"
         id="path873-8-7-4-2"
         inkscape:connector-curvature="0" />
      <path
         sodipodi:nodetypes="ccccccccccccccccccc"
         style="fill:#83c4d3;fill-opacity:1;stroke:#000000;stroke-width:0.33064091;stroke-miterlimit:4;stroke-dasharray:none;stroke-opacity:1"
         d="m 2.9381738,294.70119 c -0.4326136,-0.0336 -0.7703123,-0.35741 -1.2039603,-0.38864 -0.1161528,-0.0173 -0.2337971,-0.0243 -0.3511951,-0.0217 v 4e-5 c -0.43910404,0.0149 -0.86327987,0.1708 -1.2617432,0.33962 -0.26167901,0.1898 -0.0648002,0.67598 0.2573635,0.61624 0.49000306,-0.13215 1.0146419,-0.39482 1.5214095,-0.17239 0.3582402,0.16172 0.7224344,0.34626 1.1268709,0.33643 0.4579979,0.0209 0.8914704,-0.15759 1.1471248,-0.26607 0.1558473,-0.0573 0.4797272,-0.20478 0.8252823,-0.14311 0.4326138,0.0336 0.7703121,0.35741 1.2039608,0.38864 0.1161528,0.0173 0.2337966,0.0243 0.3511949,0.0217 v -5e-5 c 0.4391041,-0.0149 0.8632801,-0.1708 1.2617429,-0.33962 0.261679,-0.1898 0.0648,-0.67598 -0.2573634,-0.61624 -0.4900025,0.13216 -1.0146416,0.39482 -1.5214095,0.17239 -0.3582397,-0.16172 -0.7224339,-0.34626 -1.1268707,-0.33643 -0.4579982,-0.0209 -0.8914707,0.15759 -1.1471248,0.26608 -0.1558473,0.0573 -0.4797272,0.20477 -0.8252826,0.1431 z"
         id="path873-8-7-4-27"
         inkscape:connector-curvature="0" />
    </g>
  </g>
</svg>
