<?xml version="1.0" encoding="UTF-8" standalone="no"?>
<!-- Created with Inkscape (http://www.inkscape.org/) -->

<svg
   xmlns:dc="http://purl.org/dc/elements/1.1/"
   xmlns:cc="http://creativecommons.org/ns#"
   xmlns:rdf="http://www.w3.org/1999/02/22-rdf-syntax-ns#"
   xmlns:svg="http://www.w3.org/2000/svg"
   xmlns="http://www.w3.org/2000/svg"
   xmlns:sodipodi="http://sodipodi.sourceforge.net/DTD/sodipodi-0.dtd"
   xmlns:inkscape="http://www.inkscape.org/namespaces/inkscape"
   width="30"
   height="30"
   viewBox="0 0 7.9374998 7.9375002"
   version="1.1"
   id="svg822"
   inkscape:version="0.92.3 (2405546, 2018-03-11)"
   sodipodi:docname="hail 3.svg">
  <defs
     id="defs816">
    <marker
       inkscape:stockid="Arrow1Lstart"
       orient="auto"
       refY="0.0"
       refX="0.0"
       id="Arrow1Lstart"
       style="overflow:visible"
       inkscape:isstock="true">
      <path
         id="path898"
         d="M 0.0,0.0 L 5.0,-5.0 L -12.5,0.0 L 5.0,5.0 L 0.0,0.0 z "
         style="fill-rule:evenodd;stroke:#000000;stroke-width:1.0pt"
         transform="scale(0.8) translate(12.5,0)" />
    </marker>
  </defs>
  <sodipodi:namedview
     id="base"
     pagecolor="#ffffff"
     bordercolor="#666666"
     borderopacity="1.0"
     inkscape:pageopacity="0.0"
     inkscape:pageshadow="2"
     inkscape:zoom="22.627416"
     inkscape:cx="7.5948165"
     inkscape:cy="11.173337"
     inkscape:document-units="mm"
     inkscape:current-layer="layer1"
     showgrid="false"
     units="px"
     inkscape:window-width="1366"
     inkscape:window-height="715"
     inkscape:window-x="-8"
     inkscape:window-y="-8"
     inkscape:window-maximized="1" />
  <metadata
     id="metadata819">
    <rdf:RDF>
      <cc:Work
         rdf:about="">
        <dc:format>image/svg+xml</dc:format>
        <dc:type
           rdf:resource="http://purl.org/dc/dcmitype/StillImage" />
        <dc:title></dc:title>
      </cc:Work>
    </rdf:RDF>
  </metadata>
  <g
     inkscape:label="Livello 1"
     inkscape:groupmode="layer"
     id="layer1"
     transform="translate(0,-289.06248)">
    <g
       id="g970"
       transform="translate(0,0.16447205)">
      <g
         style="fill:#83c4d3;fill-opacity:1;stroke:#000000;stroke-width:39.00424194;stroke-miterlimit:4;stroke-dasharray:none;stroke-opacity:1"
         transform="matrix(-0.00814014,0,0,0.00814014,7.9464135,287.78992)"
         id="g4">
        <path
           sodipodi:nodetypes="scscccsssscs"
           style="fill:#83c4d3;fill-opacity:1;stroke:#000000;stroke-width:39.00424194;stroke-miterlimit:4;stroke-dasharray:none;stroke-opacity:1"
           inkscape:connector-curvature="0"
           id="path2"
           d="m 789.54963,404.61608 h -0.48032 C 781.67343,287.70755 685.63056,196.0541 566.89492,196.0541 c -109.60679,0 -200.77142,78.77156 -220.0791,182.7116 v 0 c -98.67658,-26.0591 -177.49989,39.79813 -180.59821,128.14788 -3.45827,-0.28723 -7.01282,-0.43998 -10.56692,-0.48032 -89.287769,-1.01345 -135.054599,55.29857 -135.054599,119.85283 0,64.55521 40.95188,112.91796 133.786739,112.91796 h 635.0717 C 881.86798,739.20405 956.7,664.275 956.7,571.95665 956.69904,479.64119 881.96308,404.61608 789.54963,404.61608 Z" />
      </g>
      <g
         style="stroke:#000000;stroke-width:2.24226332;stroke-miterlimit:4;stroke-dasharray:none;stroke-opacity:1"
         id="g6"
         transform="matrix(0.141598,0,0,0.141598,-59.808973,227.01542)" />
      <g
         style="stroke:#000000;stroke-width:2.24226332;stroke-miterlimit:4;stroke-dasharray:none;stroke-opacity:1"
         id="g8"
         transform="matrix(0.141598,0,0,0.141598,-59.808973,227.01542)" />
      <g
         style="stroke:#000000;stroke-width:2.24226332;stroke-miterlimit:4;stroke-dasharray:none;stroke-opacity:1"
         id="g10"
         transform="matrix(0.141598,0,0,0.141598,-59.808973,227.01542)" />
      <g
         style="stroke:#000000;stroke-width:2.24226332;stroke-miterlimit:4;stroke-dasharray:none;stroke-opacity:1"
         id="g12"
         transform="matrix(0.141598,0,0,0.141598,-59.808973,227.01542)" />
      <g
         style="stroke:#000000;stroke-width:2.24226332;stroke-miterlimit:4;stroke-dasharray:none;stroke-opacity:1"
         id="g14"
         transform="matrix(0.141598,0,0,0.141598,-59.808973,227.01542)" />
      <g
         style="stroke:#000000;stroke-width:2.24226332;stroke-miterlimit:4;stroke-dasharray:none;stroke-opacity:1"
         id="g16"
         transform="matrix(0.141598,0,0,0.141598,-59.808973,227.01542)" />
      <g
         style="stroke:#000000;stroke-width:2.24226332;stroke-miterlimit:4;stroke-dasharray:none;stroke-opacity:1"
         id="g18"
         transform="matrix(0.141598,0,0,0.141598,-59.808973,227.01542)" />
      <g
         style="stroke:#000000;stroke-width:2.24226332;stroke-miterlimit:4;stroke-dasharray:none;stroke-opacity:1"
         id="g20"
         transform="matrix(0.141598,0,0,0.141598,-59.808973,227.01542)" />
      <g
         style="stroke:#000000;stroke-width:2.24226332;stroke-miterlimit:4;stroke-dasharray:none;stroke-opacity:1"
         id="g22"
         transform="matrix(0.141598,0,0,0.141598,-59.808973,227.01542)" />
      <g
         style="stroke:#000000;stroke-width:2.24226332;stroke-miterlimit:4;stroke-dasharray:none;stroke-opacity:1"
         id="g24"
         transform="matrix(0.141598,0,0,0.141598,-59.808973,227.01542)" />
      <g
         style="stroke:#000000;stroke-width:2.24226332;stroke-miterlimit:4;stroke-dasharray:none;stroke-opacity:1"
         id="g26"
         transform="matrix(0.141598,0,0,0.141598,-59.808973,227.01542)" />
      <g
         style="stroke:#000000;stroke-width:2.24226332;stroke-miterlimit:4;stroke-dasharray:none;stroke-opacity:1"
         id="g28"
         transform="matrix(0.141598,0,0,0.141598,-59.808973,227.01542)" />
      <g
         style="stroke:#000000;stroke-width:2.24226332;stroke-miterlimit:4;stroke-dasharray:none;stroke-opacity:1"
         id="g30"
         transform="matrix(0.141598,0,0,0.141598,-59.808973,227.01542)" />
      <g
         style="stroke:#000000;stroke-width:2.24226332;stroke-miterlimit:4;stroke-dasharray:none;stroke-opacity:1"
         id="g32"
         transform="matrix(0.141598,0,0,0.141598,-59.808973,227.01542)" />
      <g
         style="stroke:#000000;stroke-width:2.24226332;stroke-miterlimit:4;stroke-dasharray:none;stroke-opacity:1"
         id="g34"
         transform="matrix(0.141598,0,0,0.141598,-59.808973,227.01542)" />
      <path
         inkscape:connector-curvature="0"
         id="path10-67-9"
         d="m 3.50754,296.25138 -0.4601102,-0.4601 c -0.1297072,-0.1297 -0.1297072,-0.33983 0,-0.46953 L 3.50754,294.86163 c 0.1297071,-0.12969 0.339824,-0.12969 0.4695312,0 l 0.4601101,0.46012 c 0.1297073,0.1297 0.1297073,0.33983 0,0.46953 l -0.4601101,0.4601 c -0.1297072,0.12972 -0.3400432,0.12972 -0.4695312,0 z"
         style="fill:#cce9ec;fill-opacity:1;stroke:#000000;stroke-width:0.3175;stroke-miterlimit:4;stroke-dasharray:none;stroke-opacity:1" />
      <path
         inkscape:connector-curvature="0"
         id="path10-67-9-4"
         d="m 1.8802354,294.40045 -0.4601102,-0.4601 c -0.1297072,-0.1297 -0.1297072,-0.33983 0,-0.46953 l 0.4601102,-0.46012 c 0.1297071,-0.12969 0.339824,-0.12969 0.4695312,0 l 0.4601101,0.46012 c 0.1297073,0.1297 0.1297073,0.33983 0,0.46953 l -0.4601101,0.4601 c -0.1297072,0.12972 -0.3400432,0.12972 -0.4695312,0 z"
         style="fill:#cce9ec;fill-opacity:1;stroke:#000000;stroke-width:0.31750003;stroke-miterlimit:4;stroke-dasharray:none;stroke-opacity:1" />
      <path
         inkscape:connector-curvature="0"
         id="path10-67-9-8"
         d="m 5.4853889,294.98292 -0.4601103,-0.4601 c -0.1297072,-0.1297 -0.1297072,-0.33983 0,-0.46953 l 0.4601103,-0.46012 c 0.1297071,-0.12969 0.3398239,-0.12969 0.4695311,0 l 0.4601101,0.46012 c 0.1297073,0.1297 0.1297073,0.33983 0,0.46953 l -0.4601101,0.4601 c -0.1297072,0.12972 -0.3400431,0.12972 -0.4695311,0 z"
         style="fill:#cce9ec;fill-opacity:1;stroke:#000000;stroke-width:0.31750003;stroke-miterlimit:4;stroke-dasharray:none;stroke-opacity:1" />
    </g>
  </g>
</svg>
