<?xml version="1.0" encoding="UTF-8" standalone="no"?>
<!-- Created with Inkscape (http://www.inkscape.org/) -->

<svg
   xmlns:dc="http://purl.org/dc/elements/1.1/"
   xmlns:cc="http://creativecommons.org/ns#"
   xmlns:rdf="http://www.w3.org/1999/02/22-rdf-syntax-ns#"
   xmlns:svg="http://www.w3.org/2000/svg"
   xmlns="http://www.w3.org/2000/svg"
   xmlns:sodipodi="http://sodipodi.sourceforge.net/DTD/sodipodi-0.dtd"
   xmlns:inkscape="http://www.inkscape.org/namespaces/inkscape"
   width="30"
   height="30"
   viewBox="0 0 7.9374998 7.9375002"
   version="1.1"
   id="svg822"
   inkscape:version="0.92.3 (2405546, 2018-03-11)"
   sodipodi:docname="icicle mist 2b.svg">
  <defs
     id="defs816" />
  <sodipodi:namedview
     id="base"
     pagecolor="#ffffff"
     bordercolor="#666666"
     borderopacity="1.0"
     inkscape:pageopacity="0.0"
     inkscape:pageshadow="2"
     inkscape:zoom="11.2"
     inkscape:cx="9.9962084"
     inkscape:cy="23.109828"
     inkscape:document-units="mm"
     inkscape:current-layer="layer1"
     showgrid="false"
     units="px"
     inkscape:window-width="1366"
     inkscape:window-height="715"
     inkscape:window-x="-8"
     inkscape:window-y="-8"
     inkscape:window-maximized="1"
     inkscape:snap-global="true" />
  <metadata
     id="metadata819">
    <rdf:RDF>
      <cc:Work
         rdf:about="">
        <dc:format>image/svg+xml</dc:format>
        <dc:type
           rdf:resource="http://purl.org/dc/dcmitype/StillImage" />
        <dc:title></dc:title>
      </cc:Work>
    </rdf:RDF>
  </metadata>
  <g
     inkscape:label="Livello 1"
     inkscape:groupmode="layer"
     id="layer1"
     transform="translate(0,-289.06248)">
    <g
       id="g877">
      <path
         sodipodi:nodetypes="csccccccccccccccccscccsccccccccccsc"
         inkscape:connector-curvature="0"
         style="fill:#cce9ec;fill-opacity:1;stroke:#000000;stroke-width:0.31747994;stroke-miterlimit:8.5;stroke-dasharray:none;stroke-opacity:1"
         id="path2"
         d="M 7.6194629,289.28168 H 0.31740635 c -0.044467,0 -0.086673,0.0188 -0.1168506,0.0515 -0.03023,0.0328 -0.045046,0.0765 -0.041268,0.12062 l 0.3088749,4.04338 c 0.00667,0.079 0.070165,0.14067 0.1492292,0.14544 0.086666,0.004 0.1492222,-0.0502 0.1648065,-0.12731 l 0.47906795,-2.39699 0.1618998,0.80927 c 0.013898,0.0704 0.07365,0.12284 0.1457405,0.12732 0.075865,0.004 0.1381177,-0.0403 0.1606158,-0.1083 l 0.1152774,-0.34607 0.5298844,3.17927 c 0.012981,0.0775 0.078419,0.13307 0.1584111,0.13272 0.07807,-9.9e-4 0.1441143,-0.0587 0.1552752,-0.13619 l 0.4460472,-3.12401 0.645494,4.98462 c 0.0076,0.0804 0.0743,0.14227 0.154922,0.14383 h 0.0032 c 0.07941,0 0.146728,-0.0584 0.157194,-0.13743 l 0.688239,-5.69426 0.44954,2.24841 c 0.01492,0.0743 0.08,0.1276 0.155568,0.1276 0.07557,0 0.140685,-0.0533 0.155564,-0.1276 l 0.544178,-2.72113 0.428269,0.85623 c 0.05401,0.1076 0.230202,0.1076 0.284151,0 l 0.12574,-0.25113 0.213347,0.85339 c 0.01873,0.0736 0.08539,0.12382 0.162253,0.12004 0.07586,-0.004 0.13841,-0.061 0.149166,-0.1362 l 0.32611,-2.45601 c 0.0061,-0.0454 -0.0076,-0.0915 -0.03774,-0.12621 -0.03019,-0.0348 -0.07397,-0.0548 -0.120001,-0.0548 z" />
      <path
         sodipodi:nodetypes="ccccccccccccccccccc"
         style="fill:#83c4d3;fill-opacity:1;stroke:#000000;stroke-width:0.31748086;stroke-miterlimit:4;stroke-dasharray:none;stroke-opacity:1"
         d="m 2.9791331,293.90326 c -0.4154201,-0.0323 -0.7396973,-0.3432 -1.1561105,-0.37319 -0.1115365,-0.0166 -0.2245052,-0.0233 -0.3372373,-0.0208 v 4e-5 c -0.4216526,0.0143 -0.82897008,0.16401 -1.21159694,0.32612 -0.25127891,0.18226 -0.0622248,0.64912 0.24713486,0.59175 0.47052852,-0.1269 0.97431648,-0.37913 1.46094318,-0.16554 0.3440024,0.15529 0.693722,0.3325 1.0820848,0.32306 0.4397955,0.0201 0.8560399,-0.15133 1.1015337,-0.25549 0.1496534,-0.055 0.4606609,-0.19665 0.7924824,-0.13743 0.4154202,0.0323 0.7396971,0.34321 1.1561106,0.3732 0.1115366,0.0166 0.2245049,0.0233 0.3372373,0.0208 v -4e-5 c 0.4216525,-0.0143 0.8289703,-0.16402 1.2115965,-0.32613 0.2512789,-0.18225 0.062225,-0.64911 -0.2471347,-0.59174 -0.470528,0.1269 -0.9743159,0.37912 -1.460943,0.16553 -0.3440019,-0.15529 -0.6937217,-0.33249 -1.0820846,-0.32305 -0.4397957,-0.0201 -0.8560403,0.15132 -1.101534,0.2555 -0.1496529,0.055 -0.4606605,0.19663 -0.7924823,0.13741 z"
         id="path873-8-7"
         inkscape:connector-curvature="0" />
      <g
         id="g26"
         transform="matrix(0.035,0,0,0.035,-37.185392,302.49256)"
         style="stroke:#000000;stroke-width:9.0708828;stroke-miterlimit:4;stroke-dasharray:none;stroke-opacity:1" />
      <g
         id="g28"
         transform="matrix(0.035,0,0,0.035,-37.185392,302.49256)"
         style="stroke:#000000;stroke-width:9.0708828;stroke-miterlimit:4;stroke-dasharray:none;stroke-opacity:1" />
      <g
         id="g30"
         transform="matrix(0.035,0,0,0.035,-37.185392,302.49256)"
         style="stroke:#000000;stroke-width:9.0708828;stroke-miterlimit:4;stroke-dasharray:none;stroke-opacity:1" />
      <g
         id="g32"
         transform="matrix(0.035,0,0,0.035,-37.185392,302.49256)"
         style="stroke:#000000;stroke-width:9.0708828;stroke-miterlimit:4;stroke-dasharray:none;stroke-opacity:1" />
      <g
         id="g34"
         transform="matrix(0.035,0,0,0.035,-37.185392,302.49256)"
         style="stroke:#000000;stroke-width:9.0708828;stroke-miterlimit:4;stroke-dasharray:none;stroke-opacity:1" />
      <g
         id="g36"
         transform="matrix(0.035,0,0,0.035,-37.185392,302.49256)"
         style="stroke:#000000;stroke-width:9.0708828;stroke-miterlimit:4;stroke-dasharray:none;stroke-opacity:1" />
      <g
         id="g38"
         transform="matrix(0.035,0,0,0.035,-37.185392,302.49256)"
         style="stroke:#000000;stroke-width:9.0708828;stroke-miterlimit:4;stroke-dasharray:none;stroke-opacity:1" />
      <g
         id="g40"
         transform="matrix(0.035,0,0,0.035,-37.185392,302.49256)"
         style="stroke:#000000;stroke-width:9.0708828;stroke-miterlimit:4;stroke-dasharray:none;stroke-opacity:1" />
      <g
         id="g42"
         transform="matrix(0.035,0,0,0.035,-37.185392,302.49256)"
         style="stroke:#000000;stroke-width:9.0708828;stroke-miterlimit:4;stroke-dasharray:none;stroke-opacity:1" />
      <g
         id="g44"
         transform="matrix(0.035,0,0,0.035,-37.185392,302.49256)"
         style="stroke:#000000;stroke-width:9.0708828;stroke-miterlimit:4;stroke-dasharray:none;stroke-opacity:1" />
      <g
         id="g46"
         transform="matrix(0.035,0,0,0.035,-37.185392,302.49256)"
         style="stroke:#000000;stroke-width:9.0708828;stroke-miterlimit:4;stroke-dasharray:none;stroke-opacity:1" />
      <g
         id="g48"
         transform="matrix(0.035,0,0,0.035,-37.185392,302.49256)"
         style="stroke:#000000;stroke-width:9.0708828;stroke-miterlimit:4;stroke-dasharray:none;stroke-opacity:1" />
      <g
         id="g50"
         transform="matrix(0.035,0,0,0.035,-37.185392,302.49256)"
         style="stroke:#000000;stroke-width:9.0708828;stroke-miterlimit:4;stroke-dasharray:none;stroke-opacity:1" />
      <g
         id="g52"
         transform="matrix(0.035,0,0,0.035,-37.185392,302.49256)"
         style="stroke:#000000;stroke-width:9.0708828;stroke-miterlimit:4;stroke-dasharray:none;stroke-opacity:1" />
      <g
         id="g54"
         transform="matrix(0.035,0,0,0.035,-37.185392,302.49256)"
         style="stroke:#000000;stroke-width:9.0708828;stroke-miterlimit:4;stroke-dasharray:none;stroke-opacity:1" />
      <path
         sodipodi:nodetypes="ccccccccccccccccccc"
         style="fill:#83c4d3;fill-opacity:1;stroke:#000000;stroke-width:0.31748086;stroke-miterlimit:4;stroke-dasharray:none;stroke-opacity:1"
         d="m 2.9791328,291.87073 c -0.4154199,-0.0323 -0.7396972,-0.34321 -1.1561104,-0.3732 -0.1115365,-0.0166 -0.2245051,-0.0233 -0.3372373,-0.0208 v 3e-5 c -0.4216524,0.0143 -0.82896989,0.16402 -1.21159679,0.32613 -0.2512789,0.18225 -0.0622248,0.64911 0.2471349,0.59174 0.4705285,-0.12689 0.97431619,-0.37912 1.46094299,-0.16553 0.3440024,0.15529 0.6937221,0.33249 1.0820848,0.32305 0.4397953,0.0201 0.85604,-0.15132 1.1015337,-0.25549 0.1496534,-0.055 0.4606611,-0.19664 0.7924825,-0.13742 0.4154201,0.0323 0.739697,0.3432 1.1561109,0.37319 0.1115364,0.0166 0.2245046,0.0233 0.3372371,0.0208 v -5e-5 c 0.4216524,-0.0143 0.8289701,-0.16401 1.2115965,-0.32612 0.2512789,-0.18226 0.062225,-0.64912 -0.2471348,-0.59175 -0.470528,0.12691 -0.974316,0.37913 -1.460943,0.16554 -0.3440019,-0.15529 -0.6937217,-0.3325 -1.0820846,-0.32306 -0.4397957,-0.0201 -0.8560403,0.15133 -1.1015338,0.2555 -0.1496533,0.055 -0.460661,0.19664 -0.7924827,0.13742 z"
         id="path873-8-7-4-27"
         inkscape:connector-curvature="0" />
    </g>
  </g>
</svg>
