<?xml version="1.0" encoding="UTF-8" standalone="no"?>
<!-- Created with Inkscape (http://www.inkscape.org/) -->

<svg
   xmlns:dc="http://purl.org/dc/elements/1.1/"
   xmlns:cc="http://creativecommons.org/ns#"
   xmlns:rdf="http://www.w3.org/1999/02/22-rdf-syntax-ns#"
   xmlns:svg="http://www.w3.org/2000/svg"
   xmlns="http://www.w3.org/2000/svg"
   xmlns:sodipodi="http://sodipodi.sourceforge.net/DTD/sodipodi-0.dtd"
   xmlns:inkscape="http://www.inkscape.org/namespaces/inkscape"
   width="30"
   height="30"
   viewBox="0 0 7.9374998 7.9375002"
   version="1.1"
   id="svg822"
   inkscape:version="0.92.3 (2405546, 2018-03-11)"
   sodipodi:docname="umbrella.svg">
  <defs
     id="defs816" />
  <sodipodi:namedview
     id="base"
     pagecolor="#ffffff"
     bordercolor="#666666"
     borderopacity="1.0"
     inkscape:pageopacity="0.0"
     inkscape:pageshadow="2"
     inkscape:zoom="11.2"
     inkscape:cx="2.2473312"
     inkscape:cy="15.356501"
     inkscape:document-units="mm"
     inkscape:current-layer="g859"
     showgrid="false"
     units="px"
     inkscape:window-width="1366"
     inkscape:window-height="715"
     inkscape:window-x="-8"
     inkscape:window-y="-8"
     inkscape:window-maximized="1" />
  <metadata
     id="metadata819">
    <rdf:RDF>
      <cc:Work
         rdf:about="">
        <dc:format>image/svg+xml</dc:format>
        <dc:type
           rdf:resource="http://purl.org/dc/dcmitype/StillImage" />
        <dc:title></dc:title>
      </cc:Work>
    </rdf:RDF>
  </metadata>
  <g
     inkscape:label="Livello 1"
     inkscape:groupmode="layer"
     id="layer1"
     transform="translate(0,-289.06248)">
    <g
       id="g859"
       transform="matrix(0.99994802,0,0,1.000001,4.4839715,0.08610676)">
      <g
         id="g881"
         transform="translate(4.6108395e-6,-7.5873799e-6)">
        <path
           d="m 1.9062759,290.07134 c 0.049858,-0.0918 0.023,-0.20647 -0.062551,-0.26658 -0.085527,-0.0601 -0.2024909,-0.0465 -0.2720517,0.0315 l -0.83990015,0.94212 0.57276995,0.4025 z m 0,0"
           id="path2"
           inkscape:connector-curvature="0"
           style="fill:#84c3d1;fill-opacity:1;stroke:#000000;stroke-width:0.3175081;stroke-miterlimit:4;stroke-dasharray:none;stroke-opacity:1" />
        <path
           d="m -3.3426766,296.20403 c -0.3781919,-0.26578 -0.469653,-0.78967 -0.2038596,-1.16791 l 0.1712488,-0.24369 c 0.087778,-0.12491 0.260149,-0.15501 0.3850217,-0.0673 0.1248693,0.0877 0.1550035,0.26015 0.067225,0.38506 l -0.1712454,0.24369 c -0.090551,0.12886 -0.05939,0.30732 0.069423,0.39784 0.1288486,0.0906 0.3073189,0.0594 0.3978663,-0.0695 l 2.59319565,-3.69034 c 0.087771,-0.12491 0.2601912,-0.15498 0.3850603,-0.0672 0.124873,0.0878 0.1549614,0.26013 0.06719,0.38504 l -2.59319545,3.69034 c -0.2657863,0.37824 -0.7896931,0.4697 -1.1679309,0.20391 z"
           id="path4"
           inkscape:connector-curvature="0"
           style="fill:#84c3d1;fill-opacity:1;stroke:#000000;stroke-width:0.3175081;stroke-linecap:square;stroke-linejoin:bevel;stroke-miterlimit:4;stroke-dasharray:none;stroke-opacity:1"
           sodipodi:nodetypes="sssssssssssss" />
        <path
           style="fill:#db6d37;fill-opacity:1;stroke:none;stroke-width:0.29269081;stroke-miterlimit:4;stroke-dasharray:none;stroke-opacity:1"
           d="m 1.4761764,290.34437 c -3.1076302,-2.17748 -5.4385848,0.44957 -5.4385848,0.44957 0.2778267,-0.0949 0.7043103,10e-4 1.0898929,0.27205 0.384937,0.2705 0.6200811,0.64069 0.6254151,0.93414 0.2778195,-0.0949 0.7045677,10e-4 1.0901575,0.27223 0.38121165,0.26789 0.61520915,0.63772 0.62488235,0.92978 v 0 c 0.2780699,-0.0899 0.7052979,0.005 1.0865099,0.27287 0.3855894,0.27096 0.62065235,0.63989 0.62552065,0.93343 0.2779043,-0.0944 0.7058695,0.001 1.0908067,0.27188 0.3855861,0.27096 0.6203808,0.6397 0.6252491,0.93324 0,0 1.6818118,-3.08321 -1.4198494,-5.26919 z"
           id="path8-4"
           inkscape:connector-curvature="0"
           sodipodi:nodetypes="ccscsccscscc" />
        <path
           d="m 1.4761764,290.34437 c -0.160708,-0.0198 -2.37884755,-0.23705 -3.7232839,1.65577 0.2778337,-0.0803 0.7047018,-0.004 1.0781596,0.25906 0.38488045,0.27047 0.63123585,0.64959 0.63688735,0.94294 z"
           id="path12-3-6-5"
           inkscape:connector-curvature="0"
           style="fill:#ebb654;fill-opacity:1;stroke-width:0.01701631"
           sodipodi:nodetypes="ccscc" />
        <path
           style="fill:none;stroke:#000000;stroke-width:0.3175081;stroke-linecap:butt;stroke-linejoin:miter;stroke-miterlimit:4;stroke-dasharray:none;stroke-opacity:1"
           d="m 1.4334163,290.38865 c -1.53300295,-0.0982 -2.8736645,0.4548 -3.696554,1.64388"
           id="path966"
           inkscape:connector-curvature="0"
           sodipodi:nodetypes="cc" />
        <path
           d="m 1.4761764,290.34437 c 3.1109568,2.18616 1.4198494,5.26919 1.4198494,5.26919 -0.00533,-0.29345 -0.2415998,-0.66178 -0.6265863,-0.93232 -0.3855368,-0.27093 -0.812038,-0.36713 -1.0898539,-0.27225 0.8843785,-1.21788 0.8656566,-2.85316 0.2965908,-4.06462 z"
           id="path6-4-4-3"
           inkscape:connector-curvature="0"
           style="fill:#ebb654;fill-opacity:1;stroke-width:0.01701631"
           sodipodi:nodetypes="ccscc" />
        <path
           style="fill:none;stroke:#000000;stroke-width:0.3175081;stroke-linecap:butt;stroke-linejoin:miter;stroke-miterlimit:4;stroke-dasharray:none;stroke-opacity:1"
           d="m 1.4334163,290.38865 -1.99382245,2.83726"
           id="path966-6"
           inkscape:connector-curvature="0"
           sodipodi:nodetypes="cc" />
        <path
           style="fill:none;stroke:#000000;stroke-width:0.3175081;stroke-linecap:butt;stroke-linejoin:miter;stroke-miterlimit:4;stroke-dasharray:none;stroke-opacity:1"
           d="m 1.4334163,290.38865 c 0.6118894,1.40903 0.5458282,2.85778 -0.2940791,4.03489"
           id="path966-5"
           inkscape:connector-curvature="0"
           sodipodi:nodetypes="cc" />
        <path
           style="fill:#7eb8ff;fill-opacity:0;stroke:#000000;stroke-width:0.3175081;stroke-miterlimit:4;stroke-dasharray:none;stroke-opacity:1"
           d="m 1.4334091,290.38866 c -3.0853205,-2.16185 -5.3995463,0.44634 -5.3995463,0.44634 0.2758334,-0.0942 0.6992549,0.001 1.0820718,0.27009 0.3821747,0.26856 0.615636,0.6361 0.6209277,0.92744 0.2758228,-0.0942 0.6995124,10e-4 1.0823328,0.27028 0.37847435,0.26596 0.61078905,0.63313 0.62039155,0.9231 v 0 c 0.2760803,-0.0892 0.7002391,0.005 1.0787134,0.27091 0.3828275,0.26902 0.61619685,0.6353 0.62102995,0.92673 0.2759075,-0.0937 0.7008072,0.001 1.0829785,0.26993 0.3828169,0.26901 0.6159288,0.63511 0.620762,0.92654 0,0 1.6697431,-3.06109 -1.4096614,-5.23136 z"
           id="path8-4-1"
           inkscape:connector-curvature="0"
           sodipodi:nodetypes="ccscsccscscc" />
      </g>
    </g>
  </g>
</svg>
