<?xml version="1.0" encoding="UTF-8" standalone="no"?>
<!-- Created with Inkscape (http://www.inkscape.org/) -->

<svg
   xmlns:dc="http://purl.org/dc/elements/1.1/"
   xmlns:cc="http://creativecommons.org/ns#"
   xmlns:rdf="http://www.w3.org/1999/02/22-rdf-syntax-ns#"
   xmlns:svg="http://www.w3.org/2000/svg"
   xmlns="http://www.w3.org/2000/svg"
   xmlns:sodipodi="http://sodipodi.sourceforge.net/DTD/sodipodi-0.dtd"
   xmlns:inkscape="http://www.inkscape.org/namespaces/inkscape"
   width="30"
   height="30"
   viewBox="0 0 7.9374998 7.9375002"
   version="1.1"
   id="svg822"
   inkscape:version="0.92.3 (2405546, 2018-03-11)"
   sodipodi:docname="snow big.svg">
  <defs
     id="defs816">
    <marker
       inkscape:stockid="Arrow1Lstart"
       orient="auto"
       refY="0.0"
       refX="0.0"
       id="Arrow1Lstart"
       style="overflow:visible"
       inkscape:isstock="true">
      <path
         id="path898"
         d="M 0.0,0.0 L 5.0,-5.0 L -12.5,0.0 L 5.0,5.0 L 0.0,0.0 z "
         style="fill-rule:evenodd;stroke:#000000;stroke-width:1.0pt"
         transform="scale(0.8) translate(12.5,0)" />
    </marker>
  </defs>
  <sodipodi:namedview
     id="base"
     pagecolor="#ffffff"
     bordercolor="#666666"
     borderopacity="1.0"
     inkscape:pageopacity="0.0"
     inkscape:pageshadow="2"
     inkscape:zoom="7.9999995"
     inkscape:cx="10.494221"
     inkscape:cy="21.34956"
     inkscape:document-units="mm"
     inkscape:current-layer="layer1"
     showgrid="false"
     units="px"
     inkscape:window-width="1366"
     inkscape:window-height="715"
     inkscape:window-x="-8"
     inkscape:window-y="-8"
     inkscape:window-maximized="1" />
  <metadata
     id="metadata819">
    <rdf:RDF>
      <cc:Work
         rdf:about="">
        <dc:format>image/svg+xml</dc:format>
        <dc:type
           rdf:resource="http://purl.org/dc/dcmitype/StillImage" />
        <dc:title></dc:title>
      </cc:Work>
    </rdf:RDF>
  </metadata>
  <g
     inkscape:label="Livello 1"
     inkscape:groupmode="layer"
     id="layer1"
     transform="translate(0,-289.06248)">
    <path
       inkscape:connector-curvature="0"
       style="fill:#eef3f4;fill-opacity:1;stroke:#000000;stroke-width:0.3175;stroke-miterlimit:4;stroke-dasharray:none;stroke-opacity:1"
       d="m 7.2998887,293.87533 v 0 c -0.043565,-0.16274 -0.2109188,-0.25936 -0.3736729,-0.21565 h -1.425e-4 l -0.8837888,0.23679 -0.6357759,-0.3672 v -0.99607 l 0.6359194,-0.3672 0.8837889,0.2368 c 0.162754,0.0436 0.3301088,-0.0529 0.3738166,-0.21566 0.043707,-0.16275 -0.052909,-0.3301 -0.2156634,-0.37382 l -0.2945961,-0.0789 0.3738164,-0.21566 c 0.1370184,-0.0804 0.1828826,-0.25648 0.102656,-0.39351 -0.079508,-0.13573 -0.2534765,-0.18231 -0.3902071,-0.10452 l -0.3738168,0.21567 0.078933,-0.2946 c 0.043707,-0.16276 -0.052765,-0.33012 -0.2155195,-0.37382 h -1.427e-4 v 0 c -0.1627542,-0.0436 -0.3301089,0.0528 -0.3738168,0.21552 v 1.4e-4 l -0.2367984,0.88378 -0.6064456,0.3501 -0.8921276,-0.51989 v -0.69487 l 0.6469902,-0.64699 c 0.1190462,-0.11905 0.1190462,-0.31228 0,-0.43133 -0.1190461,-0.11905 -0.3122809,-0.11905 -0.4313269,0 l -0.2156633,0.21566 v -0.43132 c 0,-0.15888 -0.1286792,-0.28756 -0.2875515,-0.28756 -0.1588721,0 -0.2875512,0.12868 -0.2875512,0.28756 v 0.43132 l -0.2156635,-0.21566 c -0.1190464,-0.11905 -0.3122809,-0.11905 -0.4313269,0 -0.1190464,0.11905 -0.1190464,0.31228 0,0.43133 l 0.6469902,0.64699 v 0.69487 L 2.7897932,292.0181 2.1833477,291.668 1.9458303,290.78421 c -0.043564,-0.16275 -0.210919,-0.25939 -0.3736728,-0.21567 h -1.431e-4 v 0 c -0.1627536,0.0436 -0.2593711,0.21092 -0.2156638,0.37368 v 1.4e-4 l 0.078932,0.29459 -0.3738162,-0.21567 c -0.1380248,-0.0786 -0.31357448,-0.0301 -0.39207656,0.10784 -0.0777801,0.13673 -0.0312004,0.31069 0.10452512,0.39021 l 0.37381614,0.21565 -0.29459596,0.0789 c -0.16275369,0.0436 -0.2593712,0.21107 -0.21566378,0.37382 0.0437093,0.16274 0.2110634,0.25937 0.37381714,0.21566 v 0 l 0.8837889,-0.23679 0.6359194,0.36662 v 0.99608 l -0.6359194,0.3672 -0.8837889,-0.23679 c -0.16275374,-0.0436 -0.33010876,0.0528 -0.37381714,0.21551 v 1.4e-4 0 c -0.0437093,0.16275 0.0527622,0.3301 0.21551978,0.37382 h 1.4304e-4 l 0.29459602,0.0789 -0.3738162,0.21565 c -0.13701864,0.0804 -0.18302722,0.25649 -0.10265599,0.39352 0.0795082,0.13573 0.25347578,0.1823 0.39020639,0.10452 l 0.3738172,-0.21567 -0.078932,0.2946 c -0.043709,0.16276 0.052907,0.33011 0.2156637,0.37382 0.1627542,0.0436 0.3301091,-0.0529 0.3738169,-0.21567 l 0.2367984,-0.88378 0.6469902,-0.37381 0.8515831,0.49559 v 0.74288 l -0.6469902,0.64699 c -0.1190464,0.11905 -0.1190464,0.31228 0,0.43133 0.119046,0.11905 0.3122805,0.11905 0.4313269,0 l 0.2156633,-0.21566 v 0.43132 c 0,0.15888 0.1286791,0.28756 0.2875512,0.28756 0.1588723,0 0.2875515,-0.12868 0.2875515,-0.28756 v -0.43132 l 0.2156633,0.21566 c 0.119046,0.11905 0.3122808,0.11905 0.4313269,0 0.1190462,-0.11905 0.1190462,-0.31228 0,-0.43133 L 4.2563046,295.2597 v -0.74288 l 0.850864,-0.49631 0.6477092,0.37382 0.2367984,0.88377 c 0.043707,0.16275 0.2110626,0.25938 0.3738168,0.21567 0.1627538,-0.0436 0.2593712,-0.21106 0.2156633,-0.37381 l -0.078933,-0.2946 0.3738167,0.21567 c 0.1380247,0.0785 0.3135746,0.0303 0.3920763,-0.10784 0.077782,-0.13673 0.031199,-0.31069 -0.1045251,-0.39021 l -0.3738165,-0.21565 0.2945962,-0.0789 c 0.1623227,-0.0437 0.2587961,-0.21066 0.2155197,-0.37312 z m -2.4684838,-0.36488 -0.8626539,0.50322 -0.8626535,-0.50322 v -1.00643 l 0.8626535,-0.50321 0.8626539,0.50321 z"
       id="path8" />
  </g>
</svg>
