<?xml version="1.0" encoding="UTF-8" standalone="no"?>
<!-- Created with Inkscape (http://www.inkscape.org/) -->

<svg
   xmlns:dc="http://purl.org/dc/elements/1.1/"
   xmlns:cc="http://creativecommons.org/ns#"
   xmlns:rdf="http://www.w3.org/1999/02/22-rdf-syntax-ns#"
   xmlns:svg="http://www.w3.org/2000/svg"
   xmlns="http://www.w3.org/2000/svg"
   xmlns:sodipodi="http://sodipodi.sourceforge.net/DTD/sodipodi-0.dtd"
   xmlns:inkscape="http://www.inkscape.org/namespaces/inkscape"
   width="30"
   height="30"
   viewBox="0 0 7.9374998 7.9375002"
   version="1.1"
   id="svg822"
   inkscape:version="0.92.3 (2405546, 2018-03-11)"
   sodipodi:docname="rain mixed snow.svg">
  <defs
     id="defs816">
    <marker
       inkscape:stockid="Arrow1Lstart"
       orient="auto"
       refY="0.0"
       refX="0.0"
       id="Arrow1Lstart"
       style="overflow:visible"
       inkscape:isstock="true">
      <path
         id="path898"
         d="M 0.0,0.0 L 5.0,-5.0 L -12.5,0.0 L 5.0,5.0 L 0.0,0.0 z "
         style="fill-rule:evenodd;stroke:#000000;stroke-width:1.0pt"
         transform="scale(0.8) translate(12.5,0)" />
    </marker>
  </defs>
  <sodipodi:namedview
     id="base"
     pagecolor="#ffffff"
     bordercolor="#666666"
     borderopacity="1.0"
     inkscape:pageopacity="0.0"
     inkscape:pageshadow="2"
     inkscape:zoom="11.313708"
     inkscape:cx="-9.2963578"
     inkscape:cy="18.481046"
     inkscape:document-units="mm"
     inkscape:current-layer="layer1"
     showgrid="false"
     units="px"
     inkscape:window-width="1366"
     inkscape:window-height="715"
     inkscape:window-x="-8"
     inkscape:window-y="-8"
     inkscape:window-maximized="1" />
  <metadata
     id="metadata819">
    <rdf:RDF>
      <cc:Work
         rdf:about="">
        <dc:format>image/svg+xml</dc:format>
        <dc:type
           rdf:resource="http://purl.org/dc/dcmitype/StillImage" />
        <dc:title></dc:title>
      </cc:Work>
    </rdf:RDF>
  </metadata>
  <g
     inkscape:label="Livello 1"
     inkscape:groupmode="layer"
     id="layer1"
     transform="translate(0,-289.06248)">
    <g
       id="g896"
       transform="translate(0,0.00108224)">
      <g
         style="fill:#83c4d3;fill-opacity:1;stroke:#000000;stroke-width:39.00424194;stroke-miterlimit:4;stroke-dasharray:none;stroke-opacity:1"
         transform="matrix(-0.00814014,0,0,0.00814014,7.9464135,287.89633)"
         id="g4">
        <path
           sodipodi:nodetypes="scscccsssscs"
           style="fill:#83c4d3;fill-opacity:1;stroke:#000000;stroke-width:39.00424194;stroke-miterlimit:4;stroke-dasharray:none;stroke-opacity:1"
           inkscape:connector-curvature="0"
           id="path2"
           d="m 789.54963,404.61608 h -0.48032 C 781.67343,287.70755 685.63056,196.0541 566.89492,196.0541 c -109.60679,0 -200.77142,78.77156 -220.0791,182.7116 v 0 c -98.67658,-26.0591 -177.49989,39.79813 -180.59821,128.14788 -3.45827,-0.28723 -7.01282,-0.43998 -10.56692,-0.48032 -89.287769,-1.01345 -135.054599,55.29857 -135.054599,119.85283 0,64.55521 40.95188,112.91796 133.786739,112.91796 h 635.0717 C 881.86798,739.20405 956.7,664.275 956.7,571.95665 956.69904,479.64119 881.96308,404.61608 789.54963,404.61608 Z" />
      </g>
      <g
         style="stroke:#000000;stroke-width:2.24226332;stroke-miterlimit:4;stroke-dasharray:none;stroke-opacity:1"
         id="g6"
         transform="matrix(0.141598,0,0,0.141598,-59.808973,227.12183)" />
      <g
         style="stroke:#000000;stroke-width:2.24226332;stroke-miterlimit:4;stroke-dasharray:none;stroke-opacity:1"
         id="g8"
         transform="matrix(0.141598,0,0,0.141598,-59.808973,227.12183)" />
      <g
         style="stroke:#000000;stroke-width:2.24226332;stroke-miterlimit:4;stroke-dasharray:none;stroke-opacity:1"
         id="g10"
         transform="matrix(0.141598,0,0,0.141598,-59.808973,227.12183)" />
      <g
         style="stroke:#000000;stroke-width:2.24226332;stroke-miterlimit:4;stroke-dasharray:none;stroke-opacity:1"
         id="g12"
         transform="matrix(0.141598,0,0,0.141598,-59.808973,227.12183)" />
      <g
         style="stroke:#000000;stroke-width:2.24226332;stroke-miterlimit:4;stroke-dasharray:none;stroke-opacity:1"
         id="g14"
         transform="matrix(0.141598,0,0,0.141598,-59.808973,227.12183)" />
      <g
         style="stroke:#000000;stroke-width:2.24226332;stroke-miterlimit:4;stroke-dasharray:none;stroke-opacity:1"
         id="g16"
         transform="matrix(0.141598,0,0,0.141598,-59.808973,227.12183)" />
      <g
         style="stroke:#000000;stroke-width:2.24226332;stroke-miterlimit:4;stroke-dasharray:none;stroke-opacity:1"
         id="g18"
         transform="matrix(0.141598,0,0,0.141598,-59.808973,227.12183)" />
      <g
         style="stroke:#000000;stroke-width:2.24226332;stroke-miterlimit:4;stroke-dasharray:none;stroke-opacity:1"
         id="g20"
         transform="matrix(0.141598,0,0,0.141598,-59.808973,227.12183)" />
      <g
         style="stroke:#000000;stroke-width:2.24226332;stroke-miterlimit:4;stroke-dasharray:none;stroke-opacity:1"
         id="g22"
         transform="matrix(0.141598,0,0,0.141598,-59.808973,227.12183)" />
      <g
         style="stroke:#000000;stroke-width:2.24226332;stroke-miterlimit:4;stroke-dasharray:none;stroke-opacity:1"
         id="g24"
         transform="matrix(0.141598,0,0,0.141598,-59.808973,227.12183)" />
      <g
         style="stroke:#000000;stroke-width:2.24226332;stroke-miterlimit:4;stroke-dasharray:none;stroke-opacity:1"
         id="g26"
         transform="matrix(0.141598,0,0,0.141598,-59.808973,227.12183)" />
      <g
         style="stroke:#000000;stroke-width:2.24226332;stroke-miterlimit:4;stroke-dasharray:none;stroke-opacity:1"
         id="g28"
         transform="matrix(0.141598,0,0,0.141598,-59.808973,227.12183)" />
      <g
         style="stroke:#000000;stroke-width:2.24226332;stroke-miterlimit:4;stroke-dasharray:none;stroke-opacity:1"
         id="g30"
         transform="matrix(0.141598,0,0,0.141598,-59.808973,227.12183)" />
      <g
         style="stroke:#000000;stroke-width:2.24226332;stroke-miterlimit:4;stroke-dasharray:none;stroke-opacity:1"
         id="g32"
         transform="matrix(0.141598,0,0,0.141598,-59.808973,227.12183)" />
      <g
         style="stroke:#000000;stroke-width:2.24226332;stroke-miterlimit:4;stroke-dasharray:none;stroke-opacity:1"
         id="g34"
         transform="matrix(0.141598,0,0,0.141598,-59.808973,227.12183)" />
      <path
         id="path6"
         d="m 3.5343592,293.68266 c -0.076329,-0.13289 -0.2459602,-0.17863 -0.3787606,-0.10223 l -0.316749,0.18215 v -0.36546 c 0,-0.15322 -0.1241676,-0.2774 -0.2773987,-0.2774 -0.1532302,0 -0.2774694,0.12418 -0.2774694,0.2774 v 0.36538 l -0.3166056,-0.18207 c -0.1327996,-0.0764 -0.3024329,-0.0307 -0.3787606,0.10223 -0.0764,0.13278 -0.030649,0.30235 0.1021536,0.37876 l 0.3142315,0.1807 -0.3142315,0.18071 c -0.1328004,0.0764 -0.1785539,0.24596 -0.1021536,0.37876 0.05129,0.0893 0.1446698,0.13921 0.240709,0.13921 0.046901,0 0.094456,-0.0119 0.1380516,-0.0369 l 0.3166056,-0.18208 v 0.36503 c 0,0.15322 0.1242392,0.27739 0.2774694,0.27739 0.1532311,0 0.2773987,-0.12417 0.2773987,-0.27739 v -0.3651 l 0.316749,0.18215 c 0.043596,0.0251 0.091147,0.0369 0.1380515,0.0369 0.096039,0 0.1894166,-0.0499 0.2407091,-0.13921 0.0764,-0.1328 0.030649,-0.30236 -0.1021537,-0.37876 l -0.3142315,-0.18071 0.3142315,-0.1807 c 0.1327996,-0.0765 0.1785533,-0.24598 0.1021537,-0.37876 z m 0,0"
         style="fill:#eef3f4;fill-opacity:1;stroke:#000000;stroke-width:0.3175;stroke-miterlimit:4;stroke-dasharray:none;stroke-opacity:1"
         inkscape:connector-curvature="0" />
      <g
         style="fill:#84c4d3;fill-opacity:1;stroke:#000000;stroke-width:7.7022047;stroke-miterlimit:6.5;stroke-dasharray:none;stroke-opacity:1"
         transform="matrix(-0.0429128,0,0,0.03959775,6.7032019,294.20019)"
         id="g4-0-2">
        <path
           sodipodi:nodetypes="sscccss"
           inkscape:connector-curvature="0"
           style="fill:#84c4d3;fill-opacity:1;stroke:#000000;stroke-width:7.7022047;stroke-miterlimit:6.5;stroke-dasharray:none;stroke-opacity:1"
           id="path2-9-9"
           d="m 31.619,59.956 c -7.786,0 -14.119,-7.309 -14.119,-16.293 0,-3.841 1.959,-7.941 3.671,-11.09 5.707,-10.224 8.777,-17.239 10.448,-21.915 1.671,4.675 4.741,11.69 10.448,21.915 1.712,3.149 3.671,7.249 3.671,11.09 0,8.983 -6.333,16.293 -14.119,16.293 z" />
      </g>
    </g>
  </g>
</svg>
