<?xml version="1.0" encoding="UTF-8" standalone="no"?>
<!-- Created with Inkscape (http://www.inkscape.org/) -->

<svg
   xmlns:dc="http://purl.org/dc/elements/1.1/"
   xmlns:cc="http://creativecommons.org/ns#"
   xmlns:rdf="http://www.w3.org/1999/02/22-rdf-syntax-ns#"
   xmlns:svg="http://www.w3.org/2000/svg"
   xmlns="http://www.w3.org/2000/svg"
   xmlns:sodipodi="http://sodipodi.sourceforge.net/DTD/sodipodi-0.dtd"
   xmlns:inkscape="http://www.inkscape.org/namespaces/inkscape"
   width="30"
   height="30"
   viewBox="0 0 7.9374998 7.9375002"
   version="1.1"
   id="svg822"
   inkscape:version="0.92.3 (2405546, 2018-03-11)"
   sodipodi:docname="wind.svg">
  <defs
     id="defs816" />
  <sodipodi:namedview
     id="base"
     pagecolor="#ffffff"
     bordercolor="#666666"
     borderopacity="1.0"
     inkscape:pageopacity="0.0"
     inkscape:pageshadow="2"
     inkscape:zoom="11.2"
     inkscape:cx="-1.9473951"
     inkscape:cy="15.326537"
     inkscape:document-units="mm"
     inkscape:current-layer="layer1"
     showgrid="false"
     units="px"
     inkscape:window-width="1366"
     inkscape:window-height="715"
     inkscape:window-x="-8"
     inkscape:window-y="-8"
     inkscape:window-maximized="1" />
  <metadata
     id="metadata819">
    <rdf:RDF>
      <cc:Work
         rdf:about="">
        <dc:format>image/svg+xml</dc:format>
        <dc:type
           rdf:resource="http://purl.org/dc/dcmitype/StillImage" />
        <dc:title></dc:title>
      </cc:Work>
    </rdf:RDF>
  </metadata>
  <g
     inkscape:label="Livello 1"
     inkscape:groupmode="layer"
     id="layer1"
     transform="translate(0,-289.06248)">
    <g
       id="g883"
       style="stroke:#000000;stroke-width:0.33070809;stroke-miterlimit:4;stroke-dasharray:none;stroke-opacity:1"
       transform="matrix(0.96000219,0,0,0.96000219,0.1587412,11.72052)">
      <path
         inkscape:connector-curvature="0"
         d="m 0.3722784,293.85689 c 0.093219,-0.008 0.1832293,-0.0508 0.2455202,-0.12663 0.032091,-0.0389 0.8054248,-0.9525 2.7759271,-1.11187 0.190485,-0.0154 0.3326935,-0.17548 0.3179657,-0.35753 -0.014728,-0.18205 -0.1807956,-0.31719 -0.3712956,-0.30178 -2.298297,0.18589 -3.2305204,1.32134 -3.2689522,1.36967 -0.047718,0.0596 -0.070988,0.1294 -0.071438,0.19868 -6.511e-4,0.0991 0.045439,0.19715 0.1334649,0.26242 0.0706,0.0521 0.1556806,0.0738 0.2388075,0.067 z"
         id="path2"
         style="fill:#83c4d3;fill-opacity:1;stroke:#000000;stroke-width:0.33070809;stroke-miterlimit:4;stroke-dasharray:none;stroke-opacity:1" />
      <path
         inkscape:connector-curvature="0"
         d="m 6.7685632,291.54298 c -0.6655107,0 -1.0443565,0.40033 -1.0855476,0.44586 -0.1232485,0.13711 -0.1066914,0.34172 0.035114,0.46154 0.1414801,0.11967 0.3589242,0.10643 0.48656,-0.0271 0.00843,-0.009 0.2120495,-0.21882 0.5638734,-0.21882 0.2711312,0 0.4774443,0.33057 0.4774443,0.49609 0,0.40001 -0.077654,0.82682 -1.0034905,0.82682 -0.6533562,0 -1.0612387,-0.0864 -1.4556184,-0.16988 -0.3737761,-0.079 -0.7600477,-0.16084 -1.3111001,-0.16084 -0.9160382,0 -2.5431813,0.70085 -3.1114419,1.8421 -0.082042,0.16505 -0.00877,0.36238 0.1637576,0.44088 0.047951,0.0218 0.098599,0.0321 0.1482237,0.0321 0.1293256,0 0.2532407,-0.0696 0.3126635,-0.18845 0.4230756,-0.84992 1.7790721,-1.46518 2.4867971,-1.46518 0.4754136,0 0.7934722,0.0673 1.1615121,0.14534 0.4109214,0.0869 0.8761957,0.18538 1.6051911,0.18538 0.6330939,0 1.6949997,-0.19331 1.6949997,-1.48828 0,-0.47205 -0.4554924,-1.15756 -1.168938,-1.15756 z"
         id="path4"
         style="fill:#83c4d3;fill-opacity:1;stroke:#000000;stroke-width:0.33070809;stroke-miterlimit:4;stroke-dasharray:none;stroke-opacity:1" />
      <path
         inkscape:connector-curvature="0"
         d="m 3.8151271,294.35417 c -1.7051385,0 -2.0735041,1.18291 -2.0883715,1.23314 -0.05133,0.17425 0.054028,0.3535 0.2353348,0.40486 0.1819891,0.0507 0.3734351,-0.0485 0.4291527,-0.2214 0.010123,-0.0308 0.2582947,-0.75512 1.4238684,-0.75512 1.16962,0 1.7021,0.34285 1.7021,0.66147 0,0.33072 -0.1556496,0.33072 -0.2393966,0.33072 -0.066182,0 -0.2228551,-0.10432 -0.3211126,-0.21364 -0.1232485,-0.1392 -0.3410339,-0.1573 -0.4875678,-0.0388 -0.1455261,0.11805 -0.1637578,0.32669 -0.040525,0.46606 0.066523,0.0748 0.418347,0.44781 0.8491895,0.44781 0.4294936,0 0.9309057,-0.25983 0.9309057,-0.99219 3.1e-5,-0.63953 -0.6286756,-1.32295 -2.3935782,-1.32295 z"
         id="path6"
         style="fill:#83c4d3;fill-opacity:1;stroke:#000000;stroke-width:0.33070809;stroke-miterlimit:4;stroke-dasharray:none;stroke-opacity:1" />
      <path
         inkscape:connector-curvature="0"
         d="m 4.816602,291.70833 c 0.9437267,0 2.0836432,-0.65628 2.0836432,-1.47117 0,-0.1134 -0.027146,-0.22172 -0.076957,-0.32455 0.1082416,-0.0811 0.2180953,-0.15377 0.3274997,-0.2061 0.085421,-0.0408 0.119869,-0.14017 0.077329,-0.22187 -0.042881,-0.0819 -0.1462085,-0.11466 -0.2319708,-0.074 -0.1645174,0.0787 -0.32843,0.19306 -0.4855679,0.32274 -0.00806,0.005 -0.1277755,0.10758 -0.1318527,0.11227 -0.2085766,0.19528 -0.3840546,0.41446 -0.497164,0.63114 v 1.6e-4 c -0.041191,0.0795 -0.1478981,0.11418 -0.2319708,0.074 -0.041191,-0.0197 -0.071918,-0.0536 -0.08677,-0.0956 -0.014526,-0.0418 -0.011147,-0.0867 0.00946,-0.12612 0.1151404,-0.22076 0.2839675,-0.44538 0.4875679,-0.64951 0.050308,-0.0501 0.062121,-0.12483 0.030387,-0.187 -0.032076,-0.0618 -0.098258,-0.099 -0.1732145,-0.0916 -0.8093469,0.0806 -1.437046,1.13333 -1.437046,1.98519 -1.54e-5,0.17746 0.1509212,0.32199 0.3366312,0.32199 z"
         id="path8"
         style="fill:#86bc25;fill-opacity:1;stroke:#000000;stroke-width:0.33070809;stroke-miterlimit:4;stroke-dasharray:none;stroke-opacity:1" />
    </g>
  </g>
</svg>
